<?xml version="1.0" encoding="UTF-8"?>
<svg width="293px" height="59px" viewBox="0 0 293 59" version="1.1" xmlns="http://www.w3.org/2000/svg" xmlns:xlink="http://www.w3.org/1999/xlink">
    <!-- Generator: Sketch 49.3 (51167) - http://www.bohemiancoding.com/sketch -->
    <title>Group 2</title>
    <desc>Created with Sketch.</desc>
    <defs></defs>
    <g id="Page-1" stroke="none" stroke-width="1" fill="none" fill-rule="evenodd">
        <g id="Group-2" transform="translate(0.000000, -17.000000)">
            <g id="dove-(2)" transform="translate(0.000000, 19.000000)" fill-rule="nonzero">
                <path d="M56.5011254,6 C55.6724186,6 55,5.55184699 55,5.00103131 L55,4.00046878 C55,3.44824677 55.6724186,3 56.5011254,3 C57.3298321,3 58,3.44824677 58,4.00046878 L58,5.00103131 C58,5.55184699 57.3298321,6 56.5011254,6 Z" id="Shape" fill="#AAB2BC"></path>
                <path d="M32.5,53 C31.6719921,53 31,52.4771548 31,51.8345365 L31,47.1689637 C31,46.5229546 31.6719921,46 32.5,46 C33.3280079,46 34,46.5228452 34,47.1689637 L34,51.8345365 C34,52.4771548 33.3280079,53 32.5,53 Z" id="Shape" fill="#F6BB42"></path>
                <path d="M36.8759889,53 L30.1255933,53 C29.5042017,53 29,52.3271081 29,51.5000704 C29,50.6686688 29.5043072,50 30.1255933,50 L36.8759889,50 C37.4973805,50 38,50.6686688 38,51.5000704 C38,52.3271081 37.4973805,53 36.8759889,53 Z" id="Shape" fill="#FFCE54"></path>
                <path d="M56.8873067,8 L52.1110251,8 C51.4968125,8 51,7.32761289 51,6.50119567 C51,5.67041778 51.4969168,5 52.1110251,5 L56.8873067,5 C57.5015193,5 58,5.67041778 58,6.50119567 C58,7.32761289 57.5015193,8 56.8873067,8 Z" id="Shape" fill="#CCD1D9"></path>
                <path d="M32.4996308,34 C30.0187271,34 28,36.2497357 28,39.0134283 C28,40.3126493 28.4424535,42.6542301 29.0530288,44.5736993 C29.9980546,47.5538504 31.12523,49 32.4996308,49 C33.8740317,49 35.0012071,47.5539678 35.9471821,44.5736993 C36.5568082,42.6542301 37,40.3126493 37,39.0134283 C37,36.2497357 34.9813784,34 32.4996308,34 Z" id="Shape" fill="#434A54"></path>
                <g id="Group" fill="#656D78">
                    <path d="M54.8005104,4.28071625 C55.0171875,3.95249036 55.0564896,3.5430551 54.9097083,3.17947658 C54.8578021,3.05060331 53.592,0.0381763085 49.5066458,0.0381763085 C49.0554167,0.0381763085 48.5811563,0.077030303 48.0958958,0.152931129 C45.1472083,0.615338843 43.3283125,4.34780716 41.2229583,8.67133058 C39.6241771,11.9520083 37.9716563,15.3455207 35.8539271,17.1932314 C34.4915313,18.3825702 30.4633542,20.8549945 19.0028438,25.8845537 C12.0815521,28.9208127 5.68310417,31.4585207 5.61951042,31.4867576 C5.15132292,31.6702975 4.84607292,32.1220882 4.85317708,32.6197355 C4.86028125,33.1173829 5.17721875,33.5585565 5.65170833,33.7314793 C16.6996042,37.7621295 26.0350521,39.8056915 33.3994375,39.8056915 L33.4012708,39.8056915 C41.1084896,39.8056915 46.8409792,37.5855923 50.4376354,33.2020937 C55.0423958,27.5927741 56.0698646,18.5343719 53.4918542,6.273 L54.8005104,4.28071625 Z" id="Shape"></path>
                    <path d="M28.3911146,37.1126804 L11.2803854,33.1316143 C10.9796042,33.0645234 10.6636979,33.1068788 10.3951146,33.2586804 L0.617489583,38.7468072 C0.124208333,39.0221736 -0.11034375,39.597416 0.0499583333,40.1338044 C0.204875,40.6490716 0.68371875,40.9985317 1.2216875,40.9985317 C1.24494792,40.9985317 1.26820833,40.9985317 1.29146875,40.9950303 L28.1799375,39.4879697 C28.7859687,39.45273 29.2746667,38.986708 29.3274896,38.3902314 C29.3803125,37.7937548 28.9819062,37.2502507 28.3911146,37.1126804 Z" id="Shape"></path>
                </g>
                <path d="M53.9212674,25.0626183 C51.3410372,18.3996909 46.4865032,17 42.8677392,17 C38.1269033,17 33.700985,19.3218923 32.5789132,19.956847 C32.4917333,19.981098 32.4063743,20.0174191 32.3246574,20.0623775 C23.8487416,24.7511206 5.94088998,31.7713899 5.76129476,31.8440321 C5.29625922,32.0239765 4.99306425,32.4669167 5.00012059,32.9548153 C5.00717693,33.4427139 5.32198072,33.8752449 5.79327591,34.0447803 C16.7677049,37.9964709 26.0401903,40 33.3523791,40 C33.3542001,40 33.3523791,40 33.3523791,40 C39.1172947,40 43.7975826,38.7576636 47.2634973,36.3077616 C50.6509955,33.909905 52.9075446,30.3525419 53.9710033,25.7355551 C54.0226739,25.512424 54.0048054,25.277112 53.9212674,25.0626183 Z" id="Shape" fill="#AAB2BC"></path>
                <path d="M50,4.49992972 C50,5.32797639 49.3295822,6 48.501055,6 C47.6725278,6 47,5.32797639 47,4.49992972 C47,3.67202361 47.6725278,3 48.501055,3 C49.3297229,3 50,3.67216418 50,4.49992972 Z" id="Shape" fill="#434A54"></path>
            </g>
            <text id="Pigeon" font-family="RobotoSlab-Regular, Roboto Slab" font-size="60" font-weight="normal" fill="#1B2838">
                <tspan x="97.3408203" y="63">Pigeon</tspan>
            </text>
        </g>
    </g>
</svg>